#!OML:ASF I:\Actors\actors\Patient Classification 2\Patient 1\Session 1\actor1.ASF
:FULLY-SPECIFIED
:DEGREES
114
root -0.782002 18.7235 5.08567 1.09498 -4.08141 -0.288567
lowerback 19.3624 -2.0819 -5.86261
upperback 3.83649 -4.28977 -4.88407
thorax -6.6239 -2.00818 -0.880928
lowerneck -20.3324 1.79447 2.49949
upperneck 23.726 0.0347248 5.90257
head 11.0861 0.987156 1.7372
rclavicle -4.85035e-014 -2.22639e-014
rhumerus -82.1799 20.9992 -94.6754
rradius 100.859
rwrist -69.7115
rhand -28.3313 -62.2253
rfingers 7.12502
rthumb -1.70588 92.1983
lclavicle -4.85035e-014 -2.22639e-014
lhumerus -41.6095 -24.5437 104.173
lradius 84.4713
lwrist 98.0239
lhand -43.1229 -36.7286
lfingers 7.12502
lthumb -15.9767 -7.36746
rfemur 0 0 0
rtibia 0
rfoot 0 0
rtoes 0
lfemur -4.17581 -3.70515 -13.0437
ltibia 19.4679
lfoot -20.3277 13.3526
ltoes -55.8207
115
root -0.786872 18.7266 5.05608 1.12113 -4.26279 -0.343361
lowerback 20.2037 -2.15274 -6.12523
upperback 4.10603 -4.52142 -5.25119
thorax -6.78612 -2.11444 -1.04559
lowerneck -20.5087 1.97306 2.8266
upperneck 24.1774 0.129559 5.93727
head 11.2924 1.07591 1.72358
rclavicle 3.97569e-015 1.27222e-014
rhumerus -83.5535 21.2555 -94.1144
rradius 103.637
rwrist -71.068
rhand -28.9472 -63.6241
rfingers 7.12502
rthumb -2.3007 93.5914
lclavicle 3.97569e-015 1.27222e-014
lhumerus -42.2503 -24.7997 104.259
lradius 87.0165
lwrist 99.0843
lhand -43.1651 -37.4938
lfingers 7.12502
lthumb -16.0173 -8.13597
rfemur 0 0 0
rtibia 0
rfoot 0 0
rtoes 0
lfemur -4.26621 -3.62537 -12.9543
ltibia 19.4943
lfoot -20.3175 13.4221
ltoes -55.7405
116
root -0.792702 18.7301 5.02487 1.17841 -4.44864 -0.463898
lowerback 21.0607 -2.22419 -6.39119
upperback 4.41614 -4.75196 -5.55401
thorax -6.90299 -2.22053 -1.13805
lowerneck -20.8661 2.16295 3.04187
upperneck 24.5938 0.257749 6.0079
head 11.5211 1.17627 1.75043
rclavicle -1.19271e-014 2.22639e-014
rhumerus -85.4859 22.414 -93.8544
rradius 105.825
rwrist -72.6866
rhand -28.4807 -64.1798
rfingers 7.12502
rthumb -1.8502 94.1515
lclavicle -1.19271e-014 2.22639e-014
lhumerus -42.6354 -24.864 104.253
lradius 89.4447
lwrist 99.8414
lhand -43.2779 -38.1651
lfingers 7.12502
lthumb -16.126 -8.81603
rfemur 0 0 0
rtibia 0
rfoot 0 0
rtoes 0
lfemur -4.41035 -3.50515 -12.7857
ltibia 19.5515
lfoot -20.2689 13.5121
ltoes -55.8022
117
root -0.797853 18.7335 4.99078 1.26492 -4.63175 -0.582865
lowerback 21.8924 -2.28299 -6.7193
upperback 4.7409 -4.97647 -5.81429
thorax -6.97677 -2.32311 -1.15119
lowerneck -21.2213 2.3226 3.02398
upperneck 24.9676 0.353955 6.32052
head 11.7343 1.27077 1.90184
rclavicle -1.66979e-014 3.18055e-015
rhumerus -86.8325 22.8962 -93.2047
rradius 108.115
rwrist -72.954
rhand -27.4358 -65.9738
rfingers 7.12502
rthumb -0.841029 95.9519
lclavicle -1.66979e-014 3.18055e-015
lhumerus -42.8708 -24.7269 104.193
lradius 91.8291
lwrist 100.64
lhand -43.5286 -38.8395
lfingers 7.12502
lthumb -16.3674 -9.51011
rfemur 0 0 0
rtibia 0
rfoot 0 0
rtoes 0
lfemur -4.61756 -3.34415 -12.6128
ltibia 19.645
lfoot -20.2075 13.5532
ltoes -55.8202
118
root -0.80026 18.7372 4.95455 1.41625 -4.78108 -0.732595
lowerback 22.6575 -2.34663 -6.95089
upperback 5.05781 -5.18546 -6.0941
thorax -7.03047 -2.42065 -1.24497
lowerneck -21.4749 2.43353 3.00089
upperneck 25.2827 0.379284 6.67132
head 11.9081 1.33553 2.05571
rclavicle 9.54166e-015 -1.27222e-014
rhumerus -88.1392 23.4563 -92.7606
rradius 110.117
rwrist -73.5068
rhand -28.7419 -65.0586
rfingers 7.12502
rthumb -2.10246 95.028
lclavicle 9.54166e-015 -1.27222e-014
lhumerus -43.1171 -24.5442 104.04
lradius 94.1806
lwrist 101.637
lhand -41.623 -38.1232
lfingers 7.12502
lthumb -14.5319 -8.65213
rfemur 0 0 0
rtibia 0
rfoot 0 0
rtoes 0
lfemur -4.92963 -3.25551 -12.412
ltibia 19.7842
lfoot -20.1762 13.604
ltoes -55.6932
